# xmcd CD database file
#
# Track frame offsets:
#	150
#	30241
#	53739
#	83068
#	100695
#	125659
#	148543
#
# Disc length: 2525 seconds
#
# Revision: 0
# Processed by: cddbd v1.5.2PL0 Copyright (c) Steve Scherf et al.
# Submitted via: CDex 1.70beta2
#
DISCID=4f09db07
DTITLE=Abdulla Ibrahim (Dollar Brand) - Zimbawe
DYEAR=1987
DGENRE=Jazz
TTITLE0=Kramat
TTITLE1=Guilty
TTITLE2=Bombella
TTITLE3=Don't blame me
TTITLE4=Zimbawe
TTITLE5=It never entered
TTITLE6=For Coltrane, No. 11
EXTD=YEAR: 1987
EXTT0=
EXTT1=
EXTT2=
EXTT3=
EXTT4=
EXTT5=
EXTT6=
PLAYORDER=
